<?xml version="1.0" encoding="utf-8"?>
<!-- Svg Vector Icons : http://www.onlinewebfonts.com/icon -->
<!DOCTYPE svg PUBLIC "-//W3C//DTD SVG 1.1//EN" "http://www.w3.org/Graphics/SVG/1.1/DTD/svg11.dtd">
<svg version="1.1" xmlns="http://www.w3.org/2000/svg" xmlns:xlink="http://www.w3.org/1999/xlink" x="0px" y="0px" viewBox="0 0 1000 1000" enable-background="new 0 0 1000 1000" xml:space="preserve">
<metadata> Svg Vector Icons : http://www.onlinewebfonts.com/icon </metadata>
<g><path d="M879.8,956.9H120.5C59.5,956.9,10,907.4,10,846.6V774c0-20.8,16.9-37.7,37.7-37.7c20.8,0,37.7,16.9,37.7,37.7v72.6c0,19.6,15.4,34.9,35.1,34.9h759.3c19.2,0,34.8-15.7,34.8-34.9V774c0-20.8,16.9-37.7,37.7-37.7c20.8,0,37.7,16.9,37.7,37.7v72.6C990,907.4,940.6,956.9,879.8,956.9z"/><path d="M499.3,784.5c-23.6,0-45.8-8.9-62.6-25L186.9,520.2c-30.2-28.9-23.9-55.7-19.8-65.9c4.1-10.2,18.1-33.9,59.9-33.9h109.6V106.1c0-34.8,28.1-63,62.7-63h201.3c34.6,0,62.7,28.3,62.7,63v314.4H773c41.9,0,56,23.7,60,33.9c4.1,10.2,10.3,36.9-19.9,65.6L561.3,759.9C544.7,775.8,522.6,784.5,499.3,784.5z M270.5,495.9L488.8,705c3.7,3.5,8.2,4.1,10.5,4.1c2.3,0,6.6-0.5,10.1-3.8l219.9-209.4H625.7c-20.8,0-37.7-16.9-37.7-37.7V118.5H412.1v339.7c0,20.8-16.9,37.7-37.7,37.7H270.5z"/></g>
</svg>