<?xml version="1.0" encoding="utf-8"?>
<!-- Svg Vector Icons : http://www.onlinewebfonts.com/icon -->
<!DOCTYPE svg PUBLIC "-//W3C//DTD SVG 1.1//EN" "http://www.w3.org/Graphics/SVG/1.1/DTD/svg11.dtd">
<svg version="1.1" xmlns="http://www.w3.org/2000/svg" xmlns:xlink="http://www.w3.org/1999/xlink" x="0px" y="0px" viewBox="0 0 1000 1000" enable-background="new 0 0 1000 1000" xml:space="preserve">
<metadata> Svg Vector Icons : http://www.onlinewebfonts.com/icon </metadata>
<g><path d="M753.2,91.5c54.2,0,105.2,21.1,143.5,59.4c38.3,38.3,59.5,89.2,59.5,143.4c0,54.2-21.1,105.1-59.5,143.4c-38.3,38.3-89.3,59.4-143.5,59.4c-54.2,0-105.2-21.1-143.5-59.4c-38.3-38.3-59.4-89.2-59.4-143.4c0-54.2,21.1-105.1,59.4-143.4C648,112.6,698.9,91.5,753.2,91.5 M753.2,57.6c-130.8,0-236.8,106-236.8,236.7c0,130.7,106,236.7,236.8,236.7S990,425,990,294.3C990,163.6,884,57.6,753.2,57.6L753.2,57.6L753.2,57.6z M886.1,269.4h-108V161.5c0-13.8-11.2-24.9-24.9-24.9c-13.8,0-24.9,11.2-24.9,24.9v107.9h-108c-13.8,0-24.9,11.1-24.9,24.9c0,13.8,11.2,24.9,24.9,24.9h108v107.9c0,13.8,11.2,24.9,24.9,24.9c13.8,0,24.9-11.2,24.9-24.9V319.2h108c13.8,0,24.9-11.1,24.9-24.9C911,280.6,899.9,269.4,886.1,269.4L886.1,269.4z M519.3,321.5c12.9,108,98.6,193.7,206.7,206.6v342.5c0,20.9-17,37.9-37.9,37.9H81.8c-20.9,0-37.9-17-37.9-37.9V359.4c0-20.9,17-37.9,37.9-37.9H519.3 M549.3,287.7h-30H81.8c-39.6,0-71.8,32.2-71.8,71.7v511.2c0,39.5,32.2,71.7,71.8,71.7h606.3c39.6,0,71.8-32.2,71.8-71.7V528.1V498l-29.8-3.6c-93.1-11.1-166-83.9-177.1-177L549.3,287.7L549.3,287.7L549.3,287.7z M602.8,586.6H167c-15.7,0-28.4,12.7-28.4,28.4c0,15.7,12.7,28.4,28.4,28.4h435.8c15.7,0,28.4-12.7,28.4-28.4C631.2,599.3,618.5,586.6,602.8,586.6L602.8,586.6z M602.8,738.1H167c-15.7,0-28.4,12.7-28.4,28.4c0,15.7,12.7,28.4,28.4,28.4h435.8c15.7,0,28.4-12.7,28.4-28.4C631.2,750.8,618.5,738.1,602.8,738.1L602.8,738.1z M167,435.1c-15.7,0-28.4,12.7-28.4,28.4c0,15.7,12.7,28.4,28.4,28.4h341.6c-14.5-17.6-27.3-36.6-38.2-56.8L167,435.1L167,435.1z"/></g>
</svg>